<svg xmlns="http://www.w3.org/2000/svg" xmlns:xlink="http://www.w3.org/1999/xlink" width="500" zoomAndPan="magnify" viewBox="0 0 375 374.999991" height="500" preserveAspectRatio="xMidYMid meet" version="1.0"><defs><g/><clipPath id="73005f1259"><rect x="0" width="243" y="0" height="243"/></clipPath></defs><g transform="matrix(1, 0, 0, 1, 71, 66)"><g clip-path="url(#73005f1259)"><g fill="#000000" fill-opacity="1"><g transform="translate(0.57521, 194.094665)"><g><path d="M 8.515625 -139.375 L 27.09375 -139.375 L 53.8125 -30.390625 C 54.457031 -27.679688 55.035156 -25.195312 55.546875 -22.9375 C 56.066406 -20.675781 56.457031 -18.707031 56.71875 -17.03125 C 56.976562 -14.96875 57.238281 -13.160156 57.5 -11.609375 L 58.265625 -11.609375 C 58.523438 -13.160156 58.847656 -14.96875 59.234375 -17.03125 C 59.492188 -18.707031 59.878906 -20.675781 60.390625 -22.9375 C 60.910156 -25.195312 61.492188 -27.679688 62.140625 -30.390625 L 89.4375 -139.375 L 107.625 -139.375 L 69.6875 0 L 45.296875 0 Z M 8.515625 -139.375 "/></g></g></g><g fill="#000000" fill-opacity="1"><g transform="translate(116.726946, 194.094665)"><g><path d="M 64.46875 -139.375 C 70.789062 -139.375 76.53125 -138.40625 81.6875 -136.46875 C 86.851562 -134.53125 91.273438 -131.753906 94.953125 -128.140625 C 98.628906 -124.535156 101.46875 -120.25 103.46875 -115.28125 C 105.46875 -110.3125 106.46875 -104.789062 106.46875 -98.71875 C 106.46875 -92.65625 105.4375 -87.140625 103.375 -82.171875 C 101.3125 -77.203125 98.4375 -72.910156 94.75 -69.296875 C 91.070312 -65.679688 86.648438 -62.90625 81.484375 -60.96875 C 76.328125 -59.039062 70.65625 -58.078125 64.46875 -58.078125 L 34.84375 -58.078125 L 34.84375 0 L 17.421875 0 L 17.421875 -139.375 Z M 34.84375 -123.890625 L 34.84375 -73.5625 L 64.46875 -73.5625 C 71.6875 -73.5625 77.488281 -75.847656 81.875 -80.421875 C 86.269531 -85.003906 88.46875 -91.101562 88.46875 -98.71875 C 88.46875 -106.332031 86.269531 -112.429688 81.875 -117.015625 C 77.488281 -121.597656 71.6875 -123.890625 64.46875 -123.890625 Z M 34.84375 -123.890625 "/></g></g></g></g></g><path stroke-linecap="butt" transform="matrix(0.75, 0, 0, 0.75, 72.814901, 258.449894)" fill="none" stroke-linejoin="miter" d="M 0.00200764 12.4991 L 380.267658 12.4991 " stroke="#5170ff" stroke-width="25" stroke-opacity="1" stroke-miterlimit="4"/><path stroke-linecap="round" transform="matrix(0.75, 0, 0, 0.75, 72.814901, 258.449894)" fill="none" stroke-linejoin="round" d="M 330.267654 -25.000902 L 380.267658 12.4991 L 330.267654 49.999103 " stroke="#5170ff" stroke-width="25" stroke-opacity="1" stroke-miterlimit="4"/><path stroke-linecap="butt" transform="matrix(-0.75, 0.000000001309, -0.000000001309, -0.75, 309.438968, 121.399869)" fill="none" stroke-linejoin="miter" d="M 0.00195755 12.501909 L 389.9499 12.50191 " stroke="#ff3131" stroke-width="25" stroke-opacity="1" stroke-miterlimit="4"/><path stroke-linecap="round" transform="matrix(-0.75, 0.000000001309, -0.000000001309, -0.75, 309.438968, 121.399869)" fill="none" stroke-linejoin="round" d="M 339.949897 -24.998093 L 389.9499 12.50191 L 339.949896 50.001912 " stroke="#ff3131" stroke-width="25" stroke-opacity="1" stroke-miterlimit="4"/></svg>